<svg width="306" height="306" viewBox="0 0 306 306" fill="none" xmlns="http://www.w3.org/2000/svg">
<rect width="306" height="306" rx="32" fill="black"/>
<path d="M161.789 157.707C161.789 156.418 161.35 155.451 160.471 154.807C159.592 154.104 158.479 153.752 157.131 153.752C155.256 153.752 153.469 154.191 151.77 155.07C150.129 155.891 148.635 157.121 147.287 158.762C145.998 160.402 144.973 162.424 144.211 164.826C143.449 167.229 143.068 170.012 143.068 173.176C143.068 176.164 143.303 178.654 143.771 180.646C144.24 182.639 144.855 184.25 145.617 185.48C146.438 186.652 147.346 187.473 148.342 187.941C149.396 188.41 150.48 188.645 151.594 188.645C153 188.645 154.318 188.322 155.549 187.678C156.779 186.975 157.834 186.096 158.713 185.041C159.65 183.928 160.383 182.668 160.91 181.262C161.496 179.855 161.789 178.42 161.789 176.955V157.707ZM155.9 116.662C160.822 116.662 165.188 117.102 168.996 117.98C172.805 118.859 175.998 120.266 178.576 122.199C181.213 124.074 183.205 126.535 184.553 129.582C185.959 132.629 186.662 136.291 186.662 140.568V186.184C186.662 188.117 186.838 189.67 187.189 190.842C187.541 192.014 187.98 192.922 188.508 193.566C189.094 194.152 189.768 194.533 190.529 194.709C191.291 194.885 192.111 194.973 192.99 194.973C196.33 194.973 199.553 194.006 202.658 192.072C205.822 190.139 208.605 187.414 211.008 183.898C213.469 180.324 215.432 176.018 216.896 170.979C218.361 165.881 219.094 160.197 219.094 153.928C219.094 145.139 217.746 137.17 215.051 130.021C212.414 122.873 208.459 116.779 203.186 111.74C197.912 106.643 191.35 102.746 183.498 100.051C175.705 97.2969 166.682 95.9199 156.428 95.9199C148.107 95.9199 140.109 97.4141 132.434 100.402C124.758 103.391 117.961 107.727 112.043 113.41C106.184 119.035 101.496 125.92 97.9805 134.064C94.4648 142.209 92.707 151.467 92.707 161.838C92.707 172.268 94.4062 181.584 97.8047 189.787C101.262 197.99 105.891 204.934 111.691 210.617C117.492 216.242 124.201 220.52 131.818 223.449C139.436 226.438 147.463 227.932 155.9 227.932C158.244 227.932 160.646 227.844 163.107 227.668C165.627 227.492 168.029 227.229 170.314 226.877C172.658 226.525 174.826 226.057 176.818 225.471C178.811 224.943 180.48 224.299 181.828 223.537L184.641 228.283C182.707 229.338 180.539 230.217 178.137 230.92C175.793 231.682 173.273 232.297 170.578 232.766C167.941 233.234 165.188 233.586 162.316 233.82C159.504 234.055 156.691 234.172 153.879 234.172C146.965 234.172 140.314 233.352 133.928 231.711C127.6 230.07 121.682 227.727 116.174 224.68C110.666 221.633 105.656 217.941 101.145 213.605C96.6328 209.27 92.7656 204.436 89.543 199.104C86.3789 193.713 83.918 187.883 82.1602 181.613C80.4023 175.344 79.5234 168.752 79.5234 161.838C79.5234 154.572 80.4023 147.688 82.1602 141.184C83.9766 134.621 86.4961 128.557 89.7188 122.99C93 117.424 96.9258 112.385 101.496 107.873C106.125 103.361 111.252 99.5527 116.877 96.4473C122.561 93.2832 128.684 90.8516 135.246 89.1523C141.809 87.4531 148.693 86.6035 155.9 86.6035C166.564 86.6035 176.232 88.1562 184.904 91.2617C193.576 94.3672 200.988 98.8496 207.141 104.709C213.293 110.51 218.039 117.57 221.379 125.891C224.777 134.211 226.477 143.557 226.477 153.928C226.477 160.783 225.656 167.17 224.016 173.088C222.434 178.947 220.002 184.016 216.721 188.293C213.498 192.57 209.455 195.939 204.592 198.4C199.729 200.803 194.045 202.004 187.541 202.004C181.096 202.004 176.057 200.598 172.424 197.785C168.791 194.914 166.389 191.105 165.217 186.359C162.17 190.871 158.361 194.299 153.791 196.643C149.279 198.986 144.621 200.158 139.816 200.158C137.238 200.158 134.719 199.777 132.258 199.016C129.797 198.195 127.6 196.906 125.666 195.148C123.791 193.391 122.268 191.135 121.096 188.381C119.924 185.627 119.338 182.287 119.338 178.361C119.338 173.615 120.275 169.689 122.15 166.584C124.084 163.479 126.633 160.871 129.797 158.762C132.961 156.594 136.564 154.748 140.607 153.225C144.709 151.701 148.898 150.119 153.176 148.479C156.281 147.248 158.479 145.607 159.768 143.557C161.115 141.447 161.789 139.191 161.789 136.789C161.789 132.746 160.705 129.465 158.537 126.945C156.369 124.426 153.264 123.166 149.221 123.166C147.346 123.166 145.617 123.371 144.035 123.781C142.512 124.191 141.193 124.719 140.08 125.363C138.967 126.008 138.088 126.711 137.443 127.473C136.799 128.234 136.477 128.938 136.477 129.582C136.477 130.402 136.887 130.988 137.707 131.34C138.586 131.691 139.523 132.102 140.52 132.57C141.516 133.039 142.424 133.684 143.244 134.504C144.123 135.324 144.562 136.584 144.562 138.283C144.562 139.338 144.328 140.334 143.859 141.271C143.391 142.209 142.746 143.029 141.926 143.732C141.164 144.436 140.256 144.992 139.201 145.402C138.146 145.812 137.033 146.018 135.861 146.018C132.873 146.018 130.441 145.021 128.566 143.029C126.75 141.037 125.842 138.371 125.842 135.031C125.842 131.809 126.75 129.055 128.566 126.77C130.383 124.426 132.727 122.521 135.598 121.057C138.469 119.533 141.691 118.42 145.266 117.717C148.84 117.014 152.385 116.662 155.9 116.662Z" fill="white"/>
</svg>
